<svg xmlns="http://www.w3.org/2000/svg" xmlns:xlink="http://www.w3.org/1999/xlink" width="500" zoomAndPan="magnify" viewBox="0 0 375 374.999991" height="500" preserveAspectRatio="xMidYMid meet" version="1.0"><defs><g/><clipPath id="00b68d0b60"><path d="M 255.027344 181.277344 L 302.449219 181.277344 L 302.449219 245.390625 L 255.027344 245.390625 Z M 255.027344 181.277344 " clip-rule="nonzero"/></clipPath><clipPath id="f1f3d6efdb"><path d="M 306 167 L 357.660156 167 L 357.660156 201 L 306 201 Z M 306 167 " clip-rule="nonzero"/></clipPath><clipPath id="7700fb03f7"><path d="M 298 144.890625 L 306.761719 144.890625 L 306.761719 250.765625 L 298 250.765625 Z M 298 144.890625 " clip-rule="nonzero"/></clipPath><clipPath id="8f374ba99d"><path d="M 26 93 L 105.832031 93 L 105.832031 157 L 26 157 Z M 26 93 " clip-rule="nonzero"/></clipPath></defs><path fill="#40b93c" d="M 288.4375 187.027344 C 292.0625 190.894531 298.210938 189.355469 302.378906 186.101562 L 302.378906 150.34375 C 283.046875 150.34375 266.433594 161.96875 259.074219 178.625 C 275.570312 175.757812 285.421875 183.808594 288.4375 187.027344 " fill-opacity="1" fill-rule="nonzero"/><g clip-path="url(#00b68d0b60)"><path fill="#40b93c" d="M 302.378906 223.160156 C 297.359375 219.902344 290.730469 214.113281 287.3125 204.894531 C 282.230469 191.191406 279.070312 177.152344 257.597656 182.410156 C 255.941406 187.246094 255.027344 192.429688 255.027344 197.828125 C 255.027344 224.054688 276.230469 245.3125 302.378906 245.3125 L 302.378906 223.160156 " fill-opacity="1" fill-rule="nonzero"/></g><g clip-path="url(#f1f3d6efdb)"><path fill="#c1ff72" d="M 320.214844 189.363281 C 325.074219 186.378906 330.425781 183.761719 334.785156 183.328125 C 334.785156 183.328125 329.820312 186.703125 324.472656 191.003906 C 328.578125 192.910156 332.875 195.882812 337.144531 200.355469 C 344.5 195.804688 352.054688 187.269531 357.652344 171.683594 C 357.652344 171.683594 338.050781 163.316406 322.90625 171.757812 C 315.878906 174.917969 310.484375 180.664062 306.367188 188.25 C 310.15625 187.71875 314.945312 187.738281 320.214844 189.363281 " fill-opacity="1" fill-rule="nonzero"/></g><path fill="#c1ff72" d="M 343.730469 223.976562 C 328.308594 181.03125 298.023438 191.613281 298.023438 191.613281 C 301.339844 199.070312 320.863281 212.332031 320.863281 212.332031 C 312.832031 211.535156 301.4375 203.347656 295.957031 199.058594 C 295.847656 198.960938 289.945312 193.632812 288.214844 190.472656 C 284.359375 183.445312 280.503906 183.644531 278.828125 183.316406 C 278.777344 183.304688 278.738281 183.296875 278.703125 183.289062 C 279.597656 183.613281 284.203125 185.878906 287.695312 196.296875 C 292.085938 209.390625 298.835938 219.339844 308.980469 223.902344 C 324.125 232.34375 343.730469 223.976562 343.730469 223.976562 " fill-opacity="1" fill-rule="nonzero"/><g clip-path="url(#7700fb03f7)"><path fill="#40b93c" d="M 306.757812 246.375 L 306.757812 225.648438 C 304.691406 224.644531 301.40625 222.796875 298 219.902344 L 298 246.375 C 298 248.800781 299.960938 250.765625 302.378906 250.765625 C 304.796875 250.765625 306.757812 248.800781 306.757812 246.375 Z M 298 188.542969 L 298 149.28125 C 298 146.855469 299.960938 144.890625 302.378906 144.890625 C 304.796875 144.890625 306.757812 146.855469 306.757812 149.28125 L 306.757812 179.578125 C 305.820312 181.921875 304.566406 184.257812 302.960938 185.636719 C 301.523438 186.867188 299.796875 187.890625 298 188.542969 " fill-opacity="1" fill-rule="nonzero"/></g><g fill="#40b93c" fill-opacity="1"><g transform="translate(35.600407, 244.64046)"><g><path d="M 2.511719 0 L 35.402344 0 C 33.894531 -1.128906 33.140625 -3.890625 33.140625 -10.417969 L 33.140625 -77.453125 C 33.140625 -83.980469 33.894531 -86.742188 35.402344 -87.875 L 2.511719 -87.875 C 3.890625 -86.742188 4.769531 -83.980469 4.769531 -77.453125 L 4.769531 -10.417969 C 4.769531 -3.890625 3.890625 -1.128906 2.511719 0 Z M 2.511719 0 "/></g></g></g><g fill="#40b93c" fill-opacity="1"><g transform="translate(128.245591, 244.64046)"><g><path d="M 34.019531 -0.375 L 33.140625 -0.375 L 33.140625 -43.6875 C 34.648438 -43.6875 56.113281 -43.433594 61.511719 -31.007812 L 61.511719 -56.867188 C 56.113281 -44.4375 34.648438 -44.1875 33.140625 -44.1875 L 33.140625 -87.496094 L 34.019531 -87.496094 C 50.089844 -87.496094 64.902344 -78.835938 72.808594 -64.777344 L 71.050781 -87.875 L 2.511719 -87.875 C 3.890625 -86.742188 4.769531 -83.980469 4.769531 -77.453125 L 4.769531 -10.417969 C 4.769531 -3.890625 3.890625 -1.128906 2.511719 0 L 71.050781 0 L 72.808594 -23.097656 C 64.902344 -9.039062 50.089844 -0.375 34.019531 -0.375 Z M 34.019531 -0.375 "/></g></g></g><g clip-path="url(#8f374ba99d)"><path fill="#c1ff72" d="M 87.980469 102.070312 C 50.285156 101.902344 30.050781 119.472656 28.320312 155.847656 C 28.296875 156.304688 27.628906 156.332031 27.566406 155.878906 C 25.882812 143.992188 26.207031 133.160156 29.230469 123.746094 C 39.199219 92.671875 77.234375 88.59375 104.21875 98.429688 C 105.5625 98.917969 105.835938 100.652344 104.71875 101.542969 C 83.667969 118.351562 86.53125 164.21875 35.300781 144.339844 C 43.300781 119.507812 59.707031 104.121094 87.980469 102.070312 " fill-opacity="1" fill-rule="evenodd"/></g></svg>