<svg xmlns="http://www.w3.org/2000/svg" xmlns:xlink="http://www.w3.org/1999/xlink" width="500" zoomAndPan="magnify" viewBox="0 0 375 374.999991" height="500" preserveAspectRatio="xMidYMid meet" version="1.0"><defs><g/><clipPath id="de77e43501"><path d="M 261.210938 168.414062 L 309.777344 168.414062 L 309.777344 234.082031 L 261.210938 234.082031 Z M 261.210938 168.414062 " clip-rule="nonzero"/></clipPath><clipPath id="9d7f1b8351"><path d="M 313 154 L 366.328125 154 L 366.328125 188 L 313 188 Z M 313 154 " clip-rule="nonzero"/></clipPath><clipPath id="630f33984f"><path d="M 305.160156 131.148438 L 314.199219 131.148438 L 314.199219 239.589844 L 305.160156 239.589844 Z M 305.160156 131.148438 " clip-rule="nonzero"/></clipPath></defs><path fill="#40b93c" d="M 295.425781 174.304688 C 299.140625 178.265625 305.4375 176.691406 309.707031 173.359375 L 309.707031 136.734375 C 289.90625 136.734375 272.890625 148.640625 265.355469 165.699219 C 282.25 162.765625 292.335938 171.011719 295.425781 174.304688 " fill-opacity="1" fill-rule="nonzero"/><g clip-path="url(#de77e43501)"><path fill="#40b93c" d="M 309.707031 211.316406 C 304.566406 207.976562 297.777344 202.046875 294.273438 192.605469 C 289.070312 178.570312 285.832031 164.191406 263.839844 169.574219 C 262.144531 174.53125 261.210938 179.839844 261.210938 185.371094 C 261.210938 212.230469 282.921875 234.003906 309.707031 234.003906 L 309.707031 211.316406 " fill-opacity="1" fill-rule="nonzero"/></g><g clip-path="url(#9d7f1b8351)"><path fill="#c1ff72" d="M 327.972656 176.699219 C 332.953125 173.640625 338.433594 170.960938 342.898438 170.515625 C 342.898438 170.515625 337.8125 173.972656 332.335938 178.378906 C 336.539062 180.332031 340.941406 183.375 345.3125 187.957031 C 352.847656 183.296875 360.585938 174.554688 366.320312 158.589844 C 366.320312 158.589844 346.242188 150.019531 330.730469 158.667969 L 330.730469 158.664062 C 323.535156 161.902344 318.007812 167.789062 313.792969 175.558594 C 317.671875 175.015625 322.578125 175.035156 327.972656 176.699219 " fill-opacity="1" fill-rule="nonzero"/></g><path fill="#c1ff72" d="M 352.058594 212.152344 C 336.261719 168.167969 305.246094 179.003906 305.246094 179.003906 C 308.640625 186.640625 328.636719 200.222656 328.636719 200.222656 C 320.414062 199.40625 308.746094 191.019531 303.132812 186.628906 C 303.019531 186.527344 296.972656 181.070312 295.199219 177.832031 C 291.253906 170.636719 287.304688 170.84375 285.585938 170.503906 C 285.535156 170.496094 285.496094 170.484375 285.457031 170.476562 C 286.375 170.808594 291.089844 173.128906 294.667969 183.800781 C 299.164062 197.210938 306.078125 207.402344 316.46875 212.074219 C 331.980469 220.71875 352.058594 212.152344 352.058594 212.152344 " fill-opacity="1" fill-rule="nonzero"/><g clip-path="url(#630f33984f)"><path fill="#40b93c" d="M 314.191406 235.09375 L 314.191406 213.863281 C 312.078125 212.835938 308.707031 210.941406 305.222656 207.976562 L 305.222656 235.09375 C 305.222656 237.578125 307.230469 239.589844 309.707031 239.589844 C 312.183594 239.589844 314.191406 237.578125 314.191406 235.09375 Z M 305.222656 175.859375 L 305.222656 135.648438 C 305.222656 133.164062 307.230469 131.148438 309.707031 131.148438 C 312.183594 131.148438 314.191406 133.164062 314.191406 135.648438 L 314.191406 166.675781 C 313.234375 169.078125 311.949219 171.472656 310.300781 172.882812 C 308.828125 174.144531 307.0625 175.1875 305.222656 175.859375 " fill-opacity="1" fill-rule="nonzero"/></g><g fill="#40b93c" fill-opacity="1"><g transform="translate(36.46318, 233.315744)"><g><path d="M 2.570312 0 L 36.257812 0 C 34.714844 -1.15625 33.945312 -3.984375 33.945312 -10.671875 L 33.945312 -79.332031 C 33.945312 -86.015625 34.714844 -88.847656 36.257812 -90.003906 L 2.570312 -90.003906 C 3.984375 -88.847656 4.886719 -86.015625 4.886719 -79.332031 L 4.886719 -10.671875 C 4.886719 -3.984375 3.984375 -1.15625 2.570312 0 Z M 2.570312 0 "/></g></g></g><g fill="#40b93c" fill-opacity="1"><g transform="translate(131.353621, 233.315744)"><g><path d="M 34.84375 -0.386719 L 33.945312 -0.386719 L 33.945312 -44.746094 C 35.488281 -44.746094 57.472656 -44.488281 63.003906 -31.757812 L 63.003906 -58.246094 C 57.472656 -45.515625 35.488281 -45.257812 33.945312 -45.257812 L 33.945312 -89.617188 L 34.84375 -89.617188 C 51.300781 -89.617188 66.472656 -80.746094 74.574219 -66.34375 L 72.773438 -90.003906 L 2.570312 -90.003906 C 3.984375 -88.847656 4.886719 -86.015625 4.886719 -79.332031 L 4.886719 -10.671875 C 4.886719 -3.984375 3.984375 -1.15625 2.570312 0 L 72.773438 0 L 74.574219 -23.65625 C 66.472656 -9.257812 51.300781 -0.386719 34.84375 -0.386719 Z M 34.84375 -0.386719 "/></g></g></g><path fill="#c1ff72" d="M 90.109375 87.289062 C 51.503906 87.117188 30.78125 105.113281 29.007812 142.371094 C 28.984375 142.839844 28.296875 142.867188 28.234375 142.402344 C 26.511719 130.230469 26.84375 119.136719 29.9375 109.492188 C 40.152344 77.664062 79.105469 73.488281 106.746094 83.558594 C 108.121094 84.0625 108.398438 85.835938 107.253906 86.75 C 85.695312 103.964844 88.628906 150.945312 36.15625 130.585938 C 44.351562 105.152344 61.152344 89.394531 90.109375 87.289062 " fill-opacity="1" fill-rule="evenodd"/><g fill="#80cc28" fill-opacity="1"><g transform="translate(32.977449, 268.306193)"><g><path d="M 3.789062 0 L 3.789062 -11.609375 L 1.285156 -11.609375 L 1.285156 0 Z M 3.789062 0 "/></g></g></g><g fill="#80cc28" fill-opacity="1"><g transform="translate(38.044877, 268.306193)"><g><path d="M 5.367188 -8.488281 C 3.871094 -8.488281 2.667969 -7.675781 2.082031 -6.375 L 2.082031 -8.292969 L 1.398438 -8.292969 L 1.398438 0 L 2.082031 0 L 2.082031 -4.324219 C 2.082031 -6.472656 3.332031 -7.902344 5.21875 -7.902344 C 6.925781 -7.902344 8.066406 -6.683594 8.066406 -4.894531 L 8.066406 0 L 8.746094 0 L 8.746094 -4.941406 C 8.746094 -7.074219 7.398438 -8.488281 5.367188 -8.488281 Z M 5.367188 -8.488281 "/></g></g></g><g fill="#80cc28" fill-opacity="1"><g transform="translate(48.089834, 268.306193)"><g><path d="M 6.015625 -8.292969 L 2.894531 -8.292969 L 2.894531 -10.632812 L 2.210938 -10.632812 L 2.210938 -8.292969 L 0.617188 -8.292969 L 0.617188 -7.707031 L 2.210938 -7.707031 L 2.210938 -1.902344 C 2.210938 -0.585938 2.941406 0.195312 4.179688 0.195312 C 4.746094 0.195312 5.316406 0.015625 5.917969 -0.339844 L 5.917969 -0.941406 C 5.332031 -0.585938 4.8125 -0.390625 4.308594 -0.390625 C 3.414062 -0.390625 2.894531 -0.976562 2.894531 -1.933594 L 2.894531 -7.707031 L 6.015625 -7.707031 Z M 6.015625 -8.292969 "/></g></g></g><g fill="#80cc28" fill-opacity="1"><g transform="translate(55.014028, 268.306193)"><g><path d="M 9.511719 -4.128906 C 9.511719 -6.828125 7.917969 -8.488281 5.300781 -8.488281 C 2.667969 -8.488281 1.074219 -6.828125 1.074219 -4.128906 C 1.074219 -1.382812 2.78125 0.195312 5.707031 0.195312 C 6.941406 0.195312 8.03125 -0.0820312 8.84375 -0.585938 L 8.84375 -1.21875 C 8.015625 -0.667969 6.941406 -0.390625 5.757812 -0.390625 C 3.269531 -0.390625 1.871094 -1.609375 1.773438 -3.871094 L 9.511719 -3.871094 Z M 5.300781 -7.902344 C 7.414062 -7.902344 8.714844 -6.585938 8.8125 -4.457031 L 1.773438 -4.457031 C 1.871094 -6.585938 3.1875 -7.902344 5.300781 -7.902344 Z M 5.300781 -7.902344 "/></g></g></g><g fill="#80cc28" fill-opacity="1"><g transform="translate(65.595367, 268.306193)"><g><path d="M 8.632812 -6.210938 C 8.03125 -7.625 6.746094 -8.488281 5.074219 -8.488281 C 2.667969 -8.488281 1.058594 -6.746094 1.074219 -4.144531 C 1.074219 -1.542969 2.683594 0.195312 5.074219 0.195312 C 6.714844 0.195312 7.984375 -0.632812 8.617188 -1.984375 L 8.617188 -0.4375 C 8.617188 1.511719 7.382812 2.570312 5.089844 2.570312 C 3.855469 2.570312 2.730469 2.242188 1.886719 1.660156 L 1.886719 2.277344 C 2.8125 2.828125 3.917969 3.121094 5.171875 3.121094 C 7.855469 3.121094 9.285156 1.855469 9.285156 -0.472656 L 9.285156 -8.292969 L 8.632812 -8.292969 Z M 5.1875 -0.40625 C 3.15625 -0.40625 1.773438 -1.902344 1.773438 -4.144531 C 1.773438 -6.390625 3.15625 -7.886719 5.1875 -7.886719 C 7.234375 -7.886719 8.601562 -6.390625 8.601562 -4.144531 C 8.601562 -1.902344 7.234375 -0.40625 5.1875 -0.40625 Z M 5.1875 -0.40625 "/></g></g></g><g fill="#80cc28" fill-opacity="1"><g transform="translate(76.274228, 268.306193)"><g><path d="M 2.082031 0 L 2.082031 -4.863281 C 2.082031 -6.78125 2.976562 -7.902344 4.519531 -7.902344 C 4.976562 -7.902344 5.414062 -7.804688 6.128906 -7.5625 L 6.128906 -8.179688 C 5.480469 -8.390625 5.007812 -8.488281 4.519531 -8.488281 C 3.332031 -8.488281 2.488281 -7.902344 2.097656 -6.828125 L 2.082031 -6.828125 L 2.082031 -8.292969 L 1.398438 -8.292969 L 1.398438 0 Z M 2.082031 0 "/></g></g></g><g fill="#80cc28" fill-opacity="1"><g transform="translate(82.840837, 268.306193)"><g><path d="M 4.617188 -8.488281 C 3.542969 -8.488281 2.570312 -8.277344 1.691406 -7.855469 L 1.691406 -7.21875 C 2.570312 -7.675781 3.527344 -7.902344 4.570312 -7.902344 C 6.617188 -7.902344 7.722656 -7.039062 7.722656 -5.414062 L 7.722656 -4.503906 C 6.78125 -5.074219 5.625 -5.382812 4.421875 -5.382812 C 2.242188 -5.382812 0.910156 -4.339844 0.910156 -2.617188 C 0.910156 -0.894531 2.261719 0.195312 4.40625 0.195312 C 6.015625 0.195312 7.203125 -0.4375 7.757812 -1.578125 L 7.757812 0 L 8.40625 0 L 8.40625 -5.398438 C 8.40625 -7.382812 7.058594 -8.488281 4.617188 -8.488281 Z M 4.503906 -0.390625 C 2.730469 -0.390625 1.609375 -1.253906 1.609375 -2.601562 C 1.609375 -3.96875 2.714844 -4.796875 4.554688 -4.796875 C 5.707031 -4.796875 6.84375 -4.457031 7.722656 -3.871094 L 7.722656 -3.253906 C 7.722656 -1.480469 6.488281 -0.390625 4.503906 -0.390625 Z M 4.503906 -0.390625 "/></g></g></g><g fill="#80cc28" fill-opacity="1"><g transform="translate(92.544455, 268.306193)"><g><path d="M 6.015625 -8.292969 L 2.894531 -8.292969 L 2.894531 -10.632812 L 2.210938 -10.632812 L 2.210938 -8.292969 L 0.617188 -8.292969 L 0.617188 -7.707031 L 2.210938 -7.707031 L 2.210938 -1.902344 C 2.210938 -0.585938 2.941406 0.195312 4.179688 0.195312 C 4.746094 0.195312 5.316406 0.015625 5.917969 -0.339844 L 5.917969 -0.941406 C 5.332031 -0.585938 4.8125 -0.390625 4.308594 -0.390625 C 3.414062 -0.390625 2.894531 -0.976562 2.894531 -1.933594 L 2.894531 -7.707031 L 6.015625 -7.707031 Z M 6.015625 -8.292969 "/></g></g></g><g fill="#80cc28" fill-opacity="1"><g transform="translate(99.468649, 268.306193)"><g><path d="M 9.511719 -4.128906 C 9.511719 -6.828125 7.917969 -8.488281 5.300781 -8.488281 C 2.667969 -8.488281 1.074219 -6.828125 1.074219 -4.128906 C 1.074219 -1.382812 2.78125 0.195312 5.707031 0.195312 C 6.941406 0.195312 8.03125 -0.0820312 8.84375 -0.585938 L 8.84375 -1.21875 C 8.015625 -0.667969 6.941406 -0.390625 5.757812 -0.390625 C 3.269531 -0.390625 1.871094 -1.609375 1.773438 -3.871094 L 9.511719 -3.871094 Z M 5.300781 -7.902344 C 7.414062 -7.902344 8.714844 -6.585938 8.8125 -4.457031 L 1.773438 -4.457031 C 1.871094 -6.585938 3.1875 -7.902344 5.300781 -7.902344 Z M 5.300781 -7.902344 "/></g></g></g><g fill="#80cc28" fill-opacity="1"><g transform="translate(110.049988, 268.306193)"><g><path d="M 8.601562 -6.339844 C 7.96875 -7.675781 6.699219 -8.488281 5.074219 -8.488281 C 2.667969 -8.488281 1.058594 -6.746094 1.074219 -4.144531 C 1.074219 -1.542969 2.683594 0.195312 5.074219 0.195312 C 6.746094 0.195312 8.03125 -0.667969 8.632812 -2.082031 L 8.632812 0 L 9.285156 0 L 9.285156 -11.609375 L 8.601562 -11.609375 Z M 5.1875 -0.40625 C 3.15625 -0.40625 1.773438 -1.902344 1.773438 -4.144531 C 1.773438 -6.390625 3.15625 -7.886719 5.1875 -7.886719 C 7.234375 -7.886719 8.601562 -6.390625 8.601562 -4.144531 C 8.601562 -1.902344 7.234375 -0.40625 5.1875 -0.40625 Z M 5.1875 -0.40625 "/></g></g></g><g fill="#80cc28" fill-opacity="1"><g transform="translate(120.728849, 268.306193)"><g/></g></g><g fill="#80cc28" fill-opacity="1"><g transform="translate(125.599256, 268.306193)"><g><path d="M 8.84375 -11.609375 L 1.285156 -11.609375 L 1.285156 0 L 8.84375 0 L 8.84375 -2 L 3.789062 -2 L 3.789062 -4.796875 L 8.359375 -4.796875 L 8.359375 -6.8125 L 3.789062 -6.8125 L 3.789062 -9.609375 L 8.84375 -9.609375 Z M 8.84375 -11.609375 "/></g></g></g><g fill="#80cc28" fill-opacity="1"><g transform="translate(135.525505, 268.306193)"><g><path d="M 5.367188 -8.488281 C 3.871094 -8.488281 2.667969 -7.675781 2.082031 -6.375 L 2.082031 -8.292969 L 1.398438 -8.292969 L 1.398438 0 L 2.082031 0 L 2.082031 -4.324219 C 2.082031 -6.472656 3.332031 -7.902344 5.21875 -7.902344 C 6.925781 -7.902344 8.066406 -6.683594 8.066406 -4.894531 L 8.066406 0 L 8.746094 0 L 8.746094 -4.941406 C 8.746094 -7.074219 7.398438 -8.488281 5.367188 -8.488281 Z M 5.367188 -8.488281 "/></g></g></g><g fill="#80cc28" fill-opacity="1"><g transform="translate(145.570462, 268.306193)"><g><path d="M 4.667969 -0.585938 L 4.632812 -0.585938 L 1.445312 -8.292969 L 0.714844 -8.292969 L 4.128906 0 L 5.171875 0 L 8.585938 -8.292969 L 7.855469 -8.292969 Z M 4.667969 -0.585938 "/></g></g></g><g fill="#80cc28" fill-opacity="1"><g transform="translate(154.867738, 268.306193)"><g><path d="M 2.210938 -9.984375 L 1.691406 -10.488281 L 1.171875 -9.984375 L 1.691406 -9.480469 Z M 2.03125 0 L 2.03125 -8.292969 L 1.347656 -8.292969 L 1.347656 0 Z M 2.03125 0 "/></g></g></g><g fill="#80cc28" fill-opacity="1"><g transform="translate(158.248564, 268.306193)"><g><path d="M 2.082031 0 L 2.082031 -4.863281 C 2.082031 -6.78125 2.976562 -7.902344 4.519531 -7.902344 C 4.976562 -7.902344 5.414062 -7.804688 6.128906 -7.5625 L 6.128906 -8.179688 C 5.480469 -8.390625 5.007812 -8.488281 4.519531 -8.488281 C 3.332031 -8.488281 2.488281 -7.902344 2.097656 -6.828125 L 2.082031 -6.828125 L 2.082031 -8.292969 L 1.398438 -8.292969 L 1.398438 0 Z M 2.082031 0 "/></g></g></g><g fill="#80cc28" fill-opacity="1"><g transform="translate(164.815173, 268.306193)"><g><path d="M 5.464844 0.195312 C 8.082031 0.195312 9.835938 -1.542969 9.835938 -4.144531 C 9.835938 -6.746094 8.082031 -8.488281 5.464844 -8.488281 C 2.828125 -8.488281 1.074219 -6.746094 1.074219 -4.144531 C 1.074219 -1.542969 2.828125 0.195312 5.464844 0.195312 Z M 5.464844 -0.40625 C 3.253906 -0.40625 1.773438 -1.902344 1.773438 -4.144531 C 1.773438 -6.390625 3.253906 -7.886719 5.464844 -7.886719 C 7.660156 -7.886719 9.136719 -6.390625 9.136719 -4.144531 C 9.136719 -1.902344 7.660156 -0.40625 5.464844 -0.40625 Z M 5.464844 -0.40625 "/></g></g></g><g fill="#80cc28" fill-opacity="1"><g transform="translate(175.721587, 268.306193)"><g><path d="M 5.367188 -8.488281 C 3.871094 -8.488281 2.667969 -7.675781 2.082031 -6.375 L 2.082031 -8.292969 L 1.398438 -8.292969 L 1.398438 0 L 2.082031 0 L 2.082031 -4.324219 C 2.082031 -6.472656 3.332031 -7.902344 5.21875 -7.902344 C 6.925781 -7.902344 8.066406 -6.683594 8.066406 -4.894531 L 8.066406 0 L 8.746094 0 L 8.746094 -4.941406 C 8.746094 -7.074219 7.398438 -8.488281 5.367188 -8.488281 Z M 5.367188 -8.488281 "/></g></g></g><g fill="#80cc28" fill-opacity="1"><g transform="translate(185.766544, 268.306193)"><g><path d="M 10.683594 -8.488281 C 9.234375 -8.488281 8.195312 -7.675781 7.722656 -6.242188 C 7.414062 -7.640625 6.375 -8.488281 4.925781 -8.488281 C 3.59375 -8.488281 2.585938 -7.773438 2.082031 -6.519531 L 2.082031 -8.292969 L 1.398438 -8.292969 L 1.398438 0 L 2.082031 0 L 2.082031 -4.519531 C 2.082031 -6.601562 3.105469 -7.902344 4.746094 -7.902344 C 6.242188 -7.902344 7.15625 -6.84375 7.15625 -5.171875 L 7.15625 0 L 7.835938 0 L 7.835938 -4.519531 C 7.835938 -6.601562 8.863281 -7.902344 10.519531 -7.902344 C 12 -7.902344 12.925781 -6.84375 12.925781 -5.171875 L 12.925781 0 L 13.609375 0 L 13.609375 -5.253906 C 13.609375 -7.234375 12.472656 -8.488281 10.683594 -8.488281 Z M 10.683594 -8.488281 "/></g></g></g><g fill="#80cc28" fill-opacity="1"><g transform="translate(200.671434, 268.306193)"><g><path d="M 9.511719 -4.128906 C 9.511719 -6.828125 7.917969 -8.488281 5.300781 -8.488281 C 2.667969 -8.488281 1.074219 -6.828125 1.074219 -4.128906 C 1.074219 -1.382812 2.78125 0.195312 5.707031 0.195312 C 6.941406 0.195312 8.03125 -0.0820312 8.84375 -0.585938 L 8.84375 -1.21875 C 8.015625 -0.667969 6.941406 -0.390625 5.757812 -0.390625 C 3.269531 -0.390625 1.871094 -1.609375 1.773438 -3.871094 L 9.511719 -3.871094 Z M 5.300781 -7.902344 C 7.414062 -7.902344 8.714844 -6.585938 8.8125 -4.457031 L 1.773438 -4.457031 C 1.871094 -6.585938 3.1875 -7.902344 5.300781 -7.902344 Z M 5.300781 -7.902344 "/></g></g></g><g fill="#80cc28" fill-opacity="1"><g transform="translate(211.252773, 268.306193)"><g><path d="M 5.367188 -8.488281 C 3.871094 -8.488281 2.667969 -7.675781 2.082031 -6.375 L 2.082031 -8.292969 L 1.398438 -8.292969 L 1.398438 0 L 2.082031 0 L 2.082031 -4.324219 C 2.082031 -6.472656 3.332031 -7.902344 5.21875 -7.902344 C 6.925781 -7.902344 8.066406 -6.683594 8.066406 -4.894531 L 8.066406 0 L 8.746094 0 L 8.746094 -4.941406 C 8.746094 -7.074219 7.398438 -8.488281 5.367188 -8.488281 Z M 5.367188 -8.488281 "/></g></g></g><g fill="#80cc28" fill-opacity="1"><g transform="translate(221.297729, 268.306193)"><g><path d="M 6.015625 -8.292969 L 2.894531 -8.292969 L 2.894531 -10.632812 L 2.210938 -10.632812 L 2.210938 -8.292969 L 0.617188 -8.292969 L 0.617188 -7.707031 L 2.210938 -7.707031 L 2.210938 -1.902344 C 2.210938 -0.585938 2.941406 0.195312 4.179688 0.195312 C 4.746094 0.195312 5.316406 0.015625 5.917969 -0.339844 L 5.917969 -0.941406 C 5.332031 -0.585938 4.8125 -0.390625 4.308594 -0.390625 C 3.414062 -0.390625 2.894531 -0.976562 2.894531 -1.933594 L 2.894531 -7.707031 L 6.015625 -7.707031 Z M 6.015625 -8.292969 "/></g></g></g><g fill="#80cc28" fill-opacity="1"><g transform="translate(228.221924, 268.306193)"><g><path d="M 4.617188 -8.488281 C 3.542969 -8.488281 2.570312 -8.277344 1.691406 -7.855469 L 1.691406 -7.21875 C 2.570312 -7.675781 3.527344 -7.902344 4.570312 -7.902344 C 6.617188 -7.902344 7.722656 -7.039062 7.722656 -5.414062 L 7.722656 -4.503906 C 6.78125 -5.074219 5.625 -5.382812 4.421875 -5.382812 C 2.242188 -5.382812 0.910156 -4.339844 0.910156 -2.617188 C 0.910156 -0.894531 2.261719 0.195312 4.40625 0.195312 C 6.015625 0.195312 7.203125 -0.4375 7.757812 -1.578125 L 7.757812 0 L 8.40625 0 L 8.40625 -5.398438 C 8.40625 -7.382812 7.058594 -8.488281 4.617188 -8.488281 Z M 4.503906 -0.390625 C 2.730469 -0.390625 1.609375 -1.253906 1.609375 -2.601562 C 1.609375 -3.96875 2.714844 -4.796875 4.554688 -4.796875 C 5.707031 -4.796875 6.84375 -4.457031 7.722656 -3.871094 L 7.722656 -3.253906 C 7.722656 -1.480469 6.488281 -0.390625 4.503906 -0.390625 Z M 4.503906 -0.390625 "/></g></g></g><g fill="#80cc28" fill-opacity="1"><g transform="translate(237.925542, 268.306193)"><g><path d="M 2.082031 0 L 2.082031 -11.609375 L 1.398438 -11.609375 L 1.398438 0 Z M 2.082031 0 "/></g></g></g><g fill="#80cc28" fill-opacity="1"><g transform="translate(241.387634, 268.306193)"><g/></g></g><g fill="#80cc28" fill-opacity="1"><g transform="translate(246.261412, 268.306193)"><g><path d="M 6.976562 0.195312 C 8.488281 0.195312 9.835938 -0.179688 10.941406 -0.878906 L 10.941406 -3.171875 C 9.871094 -2.339844 8.699219 -1.917969 7.414062 -1.917969 C 4.960938 -1.917969 3.429688 -3.429688 3.429688 -5.804688 C 3.429688 -8.195312 4.976562 -9.707031 7.414062 -9.707031 C 8.652344 -9.707031 9.804688 -9.300781 10.84375 -8.535156 L 10.84375 -10.796875 C 9.691406 -11.480469 8.421875 -11.804688 6.992188 -11.804688 C 3.171875 -11.804688 0.78125 -9.511719 0.78125 -5.804688 C 0.78125 -2.113281 3.15625 0.195312 6.976562 0.195312 Z M 6.976562 0.195312 "/></g></g></g><g fill="#80cc28" fill-opacity="1"><g transform="translate(258.169433, 268.306193)"><g><path d="M 5.464844 0.195312 C 8.082031 0.195312 9.835938 -1.542969 9.835938 -4.144531 C 9.835938 -6.746094 8.082031 -8.488281 5.464844 -8.488281 C 2.828125 -8.488281 1.074219 -6.746094 1.074219 -4.144531 C 1.074219 -1.542969 2.828125 0.195312 5.464844 0.195312 Z M 5.464844 -0.40625 C 3.253906 -0.40625 1.773438 -1.902344 1.773438 -4.144531 C 1.773438 -6.390625 3.253906 -7.886719 5.464844 -7.886719 C 7.660156 -7.886719 9.136719 -6.390625 9.136719 -4.144531 C 9.136719 -1.902344 7.660156 -0.40625 5.464844 -0.40625 Z M 5.464844 -0.40625 "/></g></g></g><g fill="#80cc28" fill-opacity="1"><g transform="translate(269.075848, 268.306193)"><g><path d="M 5.367188 -8.488281 C 3.871094 -8.488281 2.667969 -7.675781 2.082031 -6.375 L 2.082031 -8.292969 L 1.398438 -8.292969 L 1.398438 0 L 2.082031 0 L 2.082031 -4.324219 C 2.082031 -6.472656 3.332031 -7.902344 5.21875 -7.902344 C 6.925781 -7.902344 8.066406 -6.683594 8.066406 -4.894531 L 8.066406 0 L 8.746094 0 L 8.746094 -4.941406 C 8.746094 -7.074219 7.398438 -8.488281 5.367188 -8.488281 Z M 5.367188 -8.488281 "/></g></g></g><g fill="#80cc28" fill-opacity="1"><g transform="translate(279.120804, 268.306193)"><g><path d="M 3.738281 0.195312 C 5.722656 0.195312 6.863281 -0.632812 6.863281 -2.066406 C 6.863281 -3.171875 6.144531 -3.902344 4.601562 -4.40625 L 3.578125 -4.730469 C 2.324219 -5.136719 1.757812 -5.691406 1.757812 -6.4375 C 1.757812 -7.351562 2.617188 -7.902344 4.03125 -7.902344 C 4.828125 -7.902344 5.640625 -7.738281 6.535156 -7.382812 L 6.535156 -7.984375 C 5.691406 -8.324219 4.84375 -8.488281 4 -8.488281 C 2.164062 -8.488281 1.058594 -7.707031 1.058594 -6.4375 C 1.058594 -5.382812 1.820312 -4.601562 3.367188 -4.113281 L 4.421875 -3.773438 C 5.625 -3.382812 6.164062 -2.863281 6.164062 -2.066406 C 6.164062 -1.007812 5.234375 -0.390625 3.675781 -0.390625 C 2.863281 -0.390625 2.082031 -0.554688 1.1875 -0.910156 L 1.1875 -0.308594 C 2.046875 0.03125 2.863281 0.195312 3.738281 0.195312 Z M 3.738281 0.195312 "/></g></g></g><g fill="#80cc28" fill-opacity="1"><g transform="translate(287.020233, 268.306193)"><g><path d="M 7.96875 -3.96875 C 7.96875 -1.820312 6.714844 -0.390625 4.828125 -0.390625 C 3.121094 -0.390625 1.984375 -1.609375 1.984375 -3.398438 L 1.984375 -8.292969 L 1.300781 -8.292969 L 1.300781 -3.351562 C 1.300781 -1.21875 2.652344 0.195312 4.667969 0.195312 C 6.179688 0.195312 7.382812 -0.617188 7.96875 -1.917969 L 7.96875 0 L 8.652344 0 L 8.652344 -8.292969 L 7.96875 -8.292969 Z M 7.96875 -3.96875 "/></g></g></g><g fill="#80cc28" fill-opacity="1"><g transform="translate(297.06519, 268.306193)"><g><path d="M 2.082031 0 L 2.082031 -11.609375 L 1.398438 -11.609375 L 1.398438 0 Z M 2.082031 0 "/></g></g></g><g fill="#80cc28" fill-opacity="1"><g transform="translate(300.527283, 268.306193)"><g><path d="M 6.015625 -8.292969 L 2.894531 -8.292969 L 2.894531 -10.632812 L 2.210938 -10.632812 L 2.210938 -8.292969 L 0.617188 -8.292969 L 0.617188 -7.707031 L 2.210938 -7.707031 L 2.210938 -1.902344 C 2.210938 -0.585938 2.941406 0.195312 4.179688 0.195312 C 4.746094 0.195312 5.316406 0.015625 5.917969 -0.339844 L 5.917969 -0.941406 C 5.332031 -0.585938 4.8125 -0.390625 4.308594 -0.390625 C 3.414062 -0.390625 2.894531 -0.976562 2.894531 -1.933594 L 2.894531 -7.707031 L 6.015625 -7.707031 Z M 6.015625 -8.292969 "/></g></g></g><g fill="#80cc28" fill-opacity="1"><g transform="translate(307.451477, 268.306193)"><g><path d="M 4.617188 -8.488281 C 3.542969 -8.488281 2.570312 -8.277344 1.691406 -7.855469 L 1.691406 -7.21875 C 2.570312 -7.675781 3.527344 -7.902344 4.570312 -7.902344 C 6.617188 -7.902344 7.722656 -7.039062 7.722656 -5.414062 L 7.722656 -4.503906 C 6.78125 -5.074219 5.625 -5.382812 4.421875 -5.382812 C 2.242188 -5.382812 0.910156 -4.339844 0.910156 -2.617188 C 0.910156 -0.894531 2.261719 0.195312 4.40625 0.195312 C 6.015625 0.195312 7.203125 -0.4375 7.757812 -1.578125 L 7.757812 0 L 8.40625 0 L 8.40625 -5.398438 C 8.40625 -7.382812 7.058594 -8.488281 4.617188 -8.488281 Z M 4.503906 -0.390625 C 2.730469 -0.390625 1.609375 -1.253906 1.609375 -2.601562 C 1.609375 -3.96875 2.714844 -4.796875 4.554688 -4.796875 C 5.707031 -4.796875 6.84375 -4.457031 7.722656 -3.871094 L 7.722656 -3.253906 C 7.722656 -1.480469 6.488281 -0.390625 4.503906 -0.390625 Z M 4.503906 -0.390625 "/></g></g></g><g fill="#80cc28" fill-opacity="1"><g transform="translate(317.155095, 268.306193)"><g><path d="M 5.367188 -8.488281 C 3.871094 -8.488281 2.667969 -7.675781 2.082031 -6.375 L 2.082031 -8.292969 L 1.398438 -8.292969 L 1.398438 0 L 2.082031 0 L 2.082031 -4.324219 C 2.082031 -6.472656 3.332031 -7.902344 5.21875 -7.902344 C 6.925781 -7.902344 8.066406 -6.683594 8.066406 -4.894531 L 8.066406 0 L 8.746094 0 L 8.746094 -4.941406 C 8.746094 -7.074219 7.398438 -8.488281 5.367188 -8.488281 Z M 5.367188 -8.488281 "/></g></g></g><g fill="#80cc28" fill-opacity="1"><g transform="translate(327.200052, 268.306193)"><g><path d="M 6.015625 -8.292969 L 2.894531 -8.292969 L 2.894531 -10.632812 L 2.210938 -10.632812 L 2.210938 -8.292969 L 0.617188 -8.292969 L 0.617188 -7.707031 L 2.210938 -7.707031 L 2.210938 -1.902344 C 2.210938 -0.585938 2.941406 0.195312 4.179688 0.195312 C 4.746094 0.195312 5.316406 0.015625 5.917969 -0.339844 L 5.917969 -0.941406 C 5.332031 -0.585938 4.8125 -0.390625 4.308594 -0.390625 C 3.414062 -0.390625 2.894531 -0.976562 2.894531 -1.933594 L 2.894531 -7.707031 L 6.015625 -7.707031 Z M 6.015625 -8.292969 "/></g></g></g><g fill="#80cc28" fill-opacity="1"><g transform="translate(334.124246, 268.306193)"><g><path d="M 3.738281 0.195312 C 5.722656 0.195312 6.863281 -0.632812 6.863281 -2.066406 C 6.863281 -3.171875 6.144531 -3.902344 4.601562 -4.40625 L 3.578125 -4.730469 C 2.324219 -5.136719 1.757812 -5.691406 1.757812 -6.4375 C 1.757812 -7.351562 2.617188 -7.902344 4.03125 -7.902344 C 4.828125 -7.902344 5.640625 -7.738281 6.535156 -7.382812 L 6.535156 -7.984375 C 5.691406 -8.324219 4.84375 -8.488281 4 -8.488281 C 2.164062 -8.488281 1.058594 -7.707031 1.058594 -6.4375 C 1.058594 -5.382812 1.820312 -4.601562 3.367188 -4.113281 L 4.421875 -3.773438 C 5.625 -3.382812 6.164062 -2.863281 6.164062 -2.066406 C 6.164062 -1.007812 5.234375 -0.390625 3.675781 -0.390625 C 2.863281 -0.390625 2.082031 -0.554688 1.1875 -0.910156 L 1.1875 -0.308594 C 2.046875 0.03125 2.863281 0.195312 3.738281 0.195312 Z M 3.738281 0.195312 "/></g></g></g><g fill="#80cc28" fill-opacity="1"><g transform="translate(153.752603, 290.557678)"><g><path d="M 4.097656 0.195312 C 6.324219 0.195312 7.660156 -0.976562 7.660156 -2.894531 C 7.660156 -4.375 6.878906 -5.351562 5.121094 -6.046875 L 4.097656 -6.472656 C 2.535156 -7.089844 1.820312 -7.886719 1.820312 -9.007812 C 1.820312 -10.359375 2.8125 -11.1875 4.472656 -11.1875 C 5.367188 -11.1875 6.292969 -10.960938 7.300781 -10.472656 L 7.300781 -11.136719 C 6.359375 -11.578125 5.398438 -11.804688 4.472656 -11.804688 C 2.390625 -11.804688 1.105469 -10.730469 1.105469 -9.007812 C 1.105469 -7.609375 1.933594 -6.585938 3.789062 -5.871094 L 4.796875 -5.464844 C 6.324219 -4.863281 6.941406 -4.113281 6.941406 -2.894531 C 6.941406 -1.332031 5.902344 -0.421875 4.097656 -0.421875 C 3.253906 -0.421875 2.390625 -0.632812 1.253906 -1.136719 L 1.253906 -0.472656 C 2.226562 -0.015625 3.15625 0.195312 4.097656 0.195312 Z M 4.097656 0.195312 "/></g></g></g><g fill="#80cc28" fill-opacity="1"><g transform="translate(162.513497, 290.557678)"><g><path d="M 8.601562 -6.339844 C 7.96875 -7.675781 6.699219 -8.488281 5.074219 -8.488281 C 2.667969 -8.488281 1.058594 -6.746094 1.074219 -4.144531 C 1.074219 -1.542969 2.683594 0.195312 5.074219 0.195312 C 6.746094 0.195312 8.03125 -0.667969 8.632812 -2.082031 L 8.632812 0 L 9.285156 0 L 9.285156 -11.609375 L 8.601562 -11.609375 Z M 5.1875 -0.40625 C 3.15625 -0.40625 1.773438 -1.902344 1.773438 -4.144531 C 1.773438 -6.390625 3.15625 -7.886719 5.1875 -7.886719 C 7.234375 -7.886719 8.601562 -6.390625 8.601562 -4.144531 C 8.601562 -1.902344 7.234375 -0.40625 5.1875 -0.40625 Z M 5.1875 -0.40625 "/></g></g></g><g fill="#80cc28" fill-opacity="1"><g transform="translate(173.192358, 290.557678)"><g><path d="M 5.367188 -8.488281 C 3.871094 -8.488281 2.667969 -7.675781 2.082031 -6.375 L 2.082031 -8.292969 L 1.398438 -8.292969 L 1.398438 0 L 2.082031 0 L 2.082031 -4.324219 C 2.082031 -6.472656 3.332031 -7.902344 5.21875 -7.902344 C 6.925781 -7.902344 8.066406 -6.683594 8.066406 -4.894531 L 8.066406 0 L 8.746094 0 L 8.746094 -4.941406 C 8.746094 -7.074219 7.398438 -8.488281 5.367188 -8.488281 Z M 5.367188 -8.488281 "/></g></g></g><g fill="#80cc28" fill-opacity="1"><g transform="translate(183.237315, 290.557678)"><g><path d="M 1.609375 -0.40625 L 1.136719 -0.863281 L 0.667969 -0.40625 L 1.136719 0.0664062 Z M 1.609375 -0.40625 "/></g></g></g><g fill="#80cc28" fill-opacity="1"><g transform="translate(185.496621, 290.557678)"><g/></g></g><g fill="#80cc28" fill-opacity="1"><g transform="translate(190.372817, 290.557678)"><g><path d="M 6.667969 -5.835938 C 7.902344 -6.261719 8.652344 -7.269531 8.652344 -8.617188 C 8.652344 -10.4375 7.316406 -11.609375 5.234375 -11.609375 L 1.59375 -11.609375 L 1.59375 0 L 5.429688 0 C 7.511719 0 8.84375 -1.171875 8.84375 -2.992188 C 8.84375 -4.421875 8.03125 -5.464844 6.667969 -5.835938 Z M 5.1875 -11.007812 C 6.863281 -11.007812 7.953125 -10.03125 7.953125 -8.535156 C 7.953125 -7.058594 6.863281 -6.082031 5.1875 -6.082031 L 2.292969 -6.082031 L 2.292969 -11.007812 Z M 2.292969 -0.601562 L 2.292969 -5.527344 L 5.382812 -5.527344 C 7.058594 -5.527344 8.144531 -4.554688 8.144531 -3.074219 C 8.144531 -1.578125 7.058594 -0.601562 5.382812 -0.601562 Z M 2.292969 -0.601562 "/></g></g></g><g fill="#80cc28" fill-opacity="1"><g transform="translate(200.515295, 290.557678)"><g><path d="M 5.367188 -8.488281 C 3.871094 -8.488281 2.667969 -7.675781 2.082031 -6.375 L 2.082031 -11.609375 L 1.398438 -11.609375 L 1.398438 0 L 2.082031 0 L 2.082031 -4.324219 C 2.082031 -6.472656 3.332031 -7.902344 5.21875 -7.902344 C 6.925781 -7.902344 8.066406 -6.683594 8.066406 -4.894531 L 8.066406 0 L 8.746094 0 L 8.746094 -4.941406 C 8.746094 -7.074219 7.398438 -8.488281 5.367188 -8.488281 Z M 5.367188 -8.488281 "/></g></g></g><g fill="#80cc28" fill-opacity="1"><g transform="translate(210.560252, 290.557678)"><g><path d="M 8.601562 -6.339844 C 7.96875 -7.675781 6.699219 -8.488281 5.074219 -8.488281 C 2.667969 -8.488281 1.058594 -6.746094 1.074219 -4.144531 C 1.074219 -1.542969 2.683594 0.195312 5.074219 0.195312 C 6.746094 0.195312 8.03125 -0.667969 8.632812 -2.082031 L 8.632812 0 L 9.285156 0 L 9.285156 -11.609375 L 8.601562 -11.609375 Z M 5.1875 -0.40625 C 3.15625 -0.40625 1.773438 -1.902344 1.773438 -4.144531 C 1.773438 -6.390625 3.15625 -7.886719 5.1875 -7.886719 C 7.234375 -7.886719 8.601562 -6.390625 8.601562 -4.144531 C 8.601562 -1.902344 7.234375 -0.40625 5.1875 -0.40625 Z M 5.1875 -0.40625 "/></g></g></g></svg>